<svg xmlns="http://www.w3.org/2000/svg" viewBox="0 0 1857.2 723.1"><defs><style>.cls-1,.cls-12,.cls-3,.cls-4,.cls-5,.cls-6,.cls-7,.cls-9{fill:none;}.cls-1,.cls-3,.cls-5,.cls-9{stroke:#8699a3;}.cls-1,.cls-12,.cls-3,.cls-4,.cls-7,.cls-9{stroke-miterlimit:10;}.cls-1,.cls-12,.cls-5{stroke-width:2px;}.cls-14,.cls-15,.cls-16,.cls-18,.cls-2,.cls-21{fill:#8699a3;}.cls-3{stroke-width:4px;}.cls-4,.cls-6{stroke:#3ab882;}.cls-4,.cls-6,.cls-9{stroke-width:3px;}.cls-12,.cls-7{stroke:#da5961;}.cls-7{stroke-width:1.5px;}.cls-17,.cls-8{fill:#da5961;}.cls-10{fill:#fcb737;}.cls-11{fill:#34495d;}.cls-13{fill:#3ab882;}.cls-14,.cls-18,.cls-20{font-size:22.64px;}.cls-14,.cls-15,.cls-16,.cls-17,.cls-18,.cls-19,.cls-20,.cls-22{font-family:STHeitiSC-Light, Heiti SC;}.cls-15{font-size:15.1px;}.cls-16,.cls-21{font-size:19.41px;}.cls-17{font-size:16.17px;}.cls-18{writing-mode:tb;text-orientation:upright;glyph-orientation-vertical:0deg;}.cls-19{font-size:32.35px;}.cls-19,.cls-20{fill:#fff;}.cls-21{font-family:STHeitiSC-Medium, Heiti SC;}.cls-22{font-size:15px;}</style></defs><title>a</title><g id="A线条"><path class="cls-1" d="M1759.8,220.8V508.4c0,20.2,6,66.5-30.5,72.1a90.8,90.8,0,0,1-10.4.5"/><polygon class="cls-2" points="1749.8 223.7 1759.8 206.4 1769.7 223.7 1749.8 223.7"/><line class="cls-3" x1="110.3" y1="170" x2="188.7" y2="170"/><line class="cls-3" x1="365.6" y1="169" x2="498.4" y2="170"/><line class="cls-3" x1="1071.2" y1="170" x2="1117.9" y2="170"/><line class="cls-4" x1="1071.2" y1="72" x2="1117.9" y2="72"/><line class="cls-3" x1="1515" y1="170" x2="1561.6" y2="169"/><line class="cls-1" x1="277.2" y1="541.8" x2="277.2" y2="449.9"/><path class="cls-5" d="M429.3,540.8c0-28.9-11.4-45.9-34.2-46.8l-65.6-2.2c-28.1.9-45.6-18.7-52.6-41.4-7.9,22.7-25.4,42.3-52.5,41.4L162.7,494c-13.2,0-21.9,3.1-26.3,9.2-6.1,7-9.2,21-9.2,37.6"/><path class="cls-6" d="M1003.3,72H859.1c-26.1.8-41.4,8.1-42.2,21.9l-2.1,41v2.6c-.2,17.3-19.3,28.1-41.5,32.5"/><line class="cls-5" x1="1648" y1="206.6" x2="1648" y2="247.7"/><polygon class="cls-2" points="1638 244.8 1648 262.1 1658 244.8 1638 244.8"/><line class="cls-5" x1="1648.3" y1="340.4" x2="1648.3" y2="371.8"/><line class="cls-5" x1="1648.3" y1="479.7" x2="1648.3" y2="522.5"/><line class="cls-1" x1="1730" y1="425.7" x2="1760.1" y2="425.7"/><path class="cls-1" d="M696.6,220.8V489.4c0,20.2,6,66.5-30.5,72.1a88.9,88.9,0,0,1-10.3.5"/><polygon class="cls-2" points="686.7 223.7 696.6 206.4 706.6 223.7 686.7 223.7"/><line class="cls-5" x1="583.9" y1="205.6" x2="583.9" y2="247.7"/><polygon class="cls-2" points="573.9 244.8 583.9 262.1 593.8 244.8 573.9 244.8"/><line class="cls-5" x1="585.1" y1="340.4" x2="585.1" y2="371.8"/><line class="cls-5" x1="585.1" y1="479.7" x2="585.1" y2="522.5"/><line class="cls-1" x1="666.9" y1="425.7" x2="697" y2="425.7"/><path class="cls-4" d="M1227.1,71.3h181.5c20.5,0,37.2,11.3,37.2,32.2v26.9"/><path class="cls-7" d="M1444.9,130.4V104.6c0-19.5-15.4-32.6-38.4-32.6h-75.7"/><path class="cls-8" d="M1330.8,71.3h-16.2a55.6,55.6,0,0,0-6.7,1.5c-16,4.4-20.4,12.9-20.9,20.3l-2.1,40.9v2.8c-.1,14.4-15.3,26.6-40.4,31.6l.5,3c26.7-5.3,42.8-18.6,42.9-34.6v-2.6l2.1-40.9c.5-8.8,8-19.5,40.7-20.5h2.5V71.3Z"/><line class="cls-9" x1="1226.3" y1="170" x2="1372.8" y2="169"/><path class="cls-10" d="M1007.5,71.9h-4.2v1.6h4.2Z"/><path class="cls-8" d="M969,71.9c-2.7.5-5.2,1-7.4,1.6-16,4.5-20.5,13-20.9,20.4l-2.1,40.9a14.8,14.8,0,0,0-.1,2.1v.6c-.1,14.5-15.1,26.1-40.2,31l.5,3c26.6-5.3,42.6-18,42.7-33.9v-.7a13.4,13.4,0,0,1,.1-2L943.7,94c.5-8.8,8-19.5,40.8-20.5h18.8V71.9Z"/><line class="cls-3" x1="770.5" y1="170" x2="1003.3" y2="170"/></g><g id="A色块"><rect class="cls-11" x="188.7" y="129.3" width="176.8" height="78.29" rx="35.7" ry="35.7"/><rect class="cls-8" x="188.7" y="371.6" width="176.8" height="78.29" rx="35.7" ry="35.7"/><rect class="cls-12" x="83.3" y="541.2" width="87.9" height="99.88" rx="35.7" ry="35.7"/><rect class="cls-12" x="215.7" y="542.7" width="118.6" height="99.88" rx="31.7" ry="31.7"/><rect class="cls-12" x="366.9" y="541.3" width="112.3" height="157.51" rx="31.7" ry="31.7"/><rect class="cls-10" x="1372.8" y="129.3" width="142.3" height="78.29" rx="35.7" ry="35.7"/><rect class="cls-10" x="1117.9" y="32.8" width="109.1" height="78.29" rx="35.7" ry="35.7"/><rect class="cls-10" x="1117.9" y="129.3" width="109.1" height="78.29" rx="35.7" ry="35.7"/><rect class="cls-13" x="1561.5" y="128.1" width="272.2" height="78.29" rx="35.7" ry="35.7"/><rect class="cls-8" x="1561.5" y="262.1" width="157.4" height="78.29" rx="35.7" ry="35.7"/><rect class="cls-12" x="1561.5" y="522.5" width="157.4" height="120.09" rx="35.7" ry="35.7"/><polygon class="cls-12" points="1730 425.7 1648.3 371.8 1561.5 425.7 1648.3 479.7 1730 425.7"/><rect class="cls-10" x="26.1" y="142.2" width="84.1" height="55.58" rx="12" ry="12"/><circle class="cls-10" cx="1037.2" cy="72" r="33.8"/><circle class="cls-10" cx="1037.2" cy="170" r="33.8"/><rect class="cls-13" x="498.3" y="128.1" width="272.2" height="78.29" rx="35.7" ry="35.7"/><rect class="cls-8" x="498.3" y="262.1" width="157.4" height="78.29" rx="35.7" ry="35.7"/><rect class="cls-12" x="498.3" y="522.5" width="157.4" height="78.29" rx="35.7" ry="35.7"/><polygon class="cls-12" points="666.9 425.7 585.1 371.8 498.3 425.7 585.1 479.7 666.9 425.7"/></g><g id="A文字"><text class="cls-14" transform="translate(106.8 584.4)">日常<tspan x="0" y="27.2">校验</tspan></text><text class="cls-14" transform="translate(235.5 573.3)">指定工艺<tspan x="-11.3" y="27.2">（异常品、</tspan><tspan x="11.3" y="54.3">四新）</tspan></text><text class="cls-14" transform="translate(397.6 584.1)">全检/<tspan x="-17.7" y="25">人工拉号</tspan></text><text class="cls-14" transform="translate(372.9 647.2)">码后验证/<tspan x="4.9" y="25">人工拉号</tspan></text><text class="cls-15" transform="translate(1597.2 415.7)">四新任务完工？<tspan x="22.6" y="16.1">异常品？</tspan><tspan x="0" y="32.2">机台生产通知？</tspan></text><text class="cls-16" transform="translate(1573.9 567.2)">1.更新完工进度<tspan x="0" y="23.3">2.四新任务更新</tspan><tspan x="8.1" y="46.6">质量统计信息</tspan></text><text class="cls-14" transform="translate(841.4 62.8)">全检品</text><text class="cls-14" transform="translate(818.8 159.5)">码后核查</text><text class="cls-14" transform="translate(1316.3 62.8)">全检</text><text class="cls-14" transform="translate(1316.3 155.8)">抽检</text><text class="cls-15" transform="translate(1735.8 419.7)">否</text><text class="cls-15" transform="translate(1654 504)">是</text><text class="cls-17" transform="translate(930.2 152) rotate(-71.8)">异</text><text class="cls-17" transform="translate(934 133.5) rotate(-87.1)">常</text><text class="cls-17" transform="translate(934.9 116.4) rotate(-87.1)">品</text><text class="cls-17" transform="translate(1270.4 158.2) rotate(-51.6)">码</text><text class="cls-17" transform="matrix(0.04, -1, 1, 0.04, 1280.42, 140.77)">后</text><text class="cls-17" transform="matrix(0.05, -1, 1, 0.05, 1281.16, 124.96)">验</text><text class="cls-17" transform="matrix(0.05, -1, 1, 0.05, 1281.97, 109.13)">证</text><text class="cls-18" transform="translate(1783.5 253.2)">返回操作消息</text><text class="cls-19" transform="translate(35.8 181.2)">印码</text><text class="cls-19" transform="translate(220.3 180.8)">检封库房</text><text class="cls-19" transform="translate(1143.1 181.8)">裁封</text><text class="cls-19" transform="translate(1143.1 83.5)">裁切</text><text class="cls-19" transform="translate(1634.4 179.6)">库管系统</text><text class="cls-19" transform="translate(1577.3 312.1)">消息服务</text><text class="cls-19" transform="translate(216 425)">人工拉号</text><text class="cls-19" transform="translate(1399.4 178.8)">清分机</text><text class="cls-20" transform="translate(1015.6 165.1)">正常<tspan x="0" y="27.2">码后</tspan></text><text class="cls-20" transform="translate(1014.6 65.6)">全检<tspan x="0" y="27.2">工艺</tspan></text><text class="cls-19" transform="translate(568 180.6)">库管系统</text><text class="cls-19" transform="translate(514.2 309.1)">消息服务</text><text class="cls-15" transform="translate(672.7 419.7)">否</text><text class="cls-15" transform="translate(590.9 504)">是</text><text class="cls-18" transform="translate(717.4 253.2)">返回操作消息</text><text class="cls-16" transform="translate(550.8 415)">异常品？<tspan x="-29.1" y="23.3">机台生产通知？</tspan></text><text class="cls-14" transform="translate(524.1 571.7)">通知工艺员</text><text class="cls-16" transform="translate(328.1 487.2)">分担产能</text><text class="cls-16" transform="translate(169.3 487.2)">必抽</text><text class="cls-21" transform="translate(187.2 277.8)">领用出库<tspan class="cls-22"><tspan x="-27.4" y="18">人工拉号班指定</tspan><tspan x="-12.4" y="36">车号解锁出库</tspan></tspan></text><text class="cls-21" transform="translate(289.7 277.8)">完工入库<tspan class="cls-22"><tspan x="0" y="18">产品完工后变更</tspan><tspan x="0" y="36">为码后核查工艺</tspan></tspan></text><rect class="cls-2" x="272.8" y="207.6" width="2" height="159.95"/><polygon class="cls-2" points="264.9 354.3 274.8 371.6 274.8 354.3 264.9 354.3"/><line class="cls-5" x1="280.5" y1="211.5" x2="280.5" y2="371.6"/><polygon class="cls-2" points="289.4 224.8 279.5 207.6 279.5 224.8 289.4 224.8"/></g></svg>