<svg xmlns="http://www.w3.org/2000/svg" viewBox="0 0 1193.2 1296.1"><defs><style>.cls-1,.cls-13,.cls-3{fill:none;}.cls-1,.cls-13{stroke:#8699a3;}.cls-1,.cls-3{stroke-miterlimit:10;}.cls-1{stroke-width:3px;stroke-dasharray:6 8;}.cls-2{fill:#34495d;}.cls-3{stroke:#da5961;}.cls-13,.cls-3{stroke-width:2px;}.cls-4{font-size:22.64px;}.cls-10,.cls-11,.cls-14,.cls-4{fill:#8699a3;}.cls-10,.cls-12,.cls-15,.cls-16,.cls-4,.cls-5,.cls-9{font-family:STHeitiSC-Light, Heiti SC;}.cls-16,.cls-5{font-size:32.35px;}.cls-15,.cls-16,.cls-5,.cls-9{fill:#fff;}.cls-6{fill:#fcb737;}.cls-7{fill:#3ab882;}.cls-8{fill:#da5961;}.cls-9{font-size:21px;}.cls-10,.cls-11{font-size:19.41px;}.cls-11{font-family:STHeitiSC-Medium, Heiti SC;}.cls-12{font-size:15px;}.cls-15{font-size:14px;}.cls-16{writing-mode:tb;text-orientation:upright;glyph-orientation-vertical:0deg;}</style></defs><title>b</title><g id="图层_1" data-name="图层 1"><rect class="cls-1" x="77.3" y="336.6" width="1068.4" height="535.49" rx="37.5" ry="37.5"/><rect class="cls-2" x="277" y="231.5" width="670" height="78.29" rx="35.7" ry="35.7"/><rect class="cls-3" x="239.1" y="36.6" width="112.3" height="112.34" rx="31.7" ry="31.7"/><rect class="cls-3" x="449.1" y="36.6" width="112.3" height="112.34" rx="31.7" ry="31.7"/><rect class="cls-3" x="659.1" y="36.6" width="112.3" height="112.34" rx="31.7" ry="31.7"/><rect class="cls-3" x="869.1" y="36.6" width="112.3" height="112.34" rx="31.7" ry="31.7"/><text class="cls-4" transform="translate(272.7 72.9)">工艺<tspan x="0" y="31">机检</tspan><tspan x="0" y="62">判废</tspan></text><text class="cls-4" transform="translate(483.7 87.9)">机台<tspan x="0" y="31">人员</tspan></text><text class="cls-4" transform="translate(695.7 86.9)">工艺<tspan x="0" y="31">机检</tspan></text><text class="cls-4" transform="translate(894.6 100.8)">拉号班</text><text class="cls-5" transform="translate(547.3 281)">流转系统</text><rect class="cls-2" x="277.4" y="907.1" width="670" height="78.29" rx="35.7" ry="35.7"/><text class="cls-5" transform="translate(402.2 955.5)">调度系统（定时扫描/5分钟）</text><rect class="cls-6" x="606.7" y="766.1" width="290.2" height="71.49" rx="35.7" ry="35.7"/><text class="cls-5" transform="translate(654.7 811.1)">机台作业系统</text><rect class="cls-7" x="90.4" y="424.4" width="174.5" height="78.29" rx="35.7" ry="35.7"/><text class="cls-5" transform="translate(129.1 472.8)">异常品</text><rect class="cls-7" x="380.2" y="424.4" width="174.5" height="78.29" rx="35.7" ry="35.7"/><text class="cls-5" transform="translate(406.8 476.9)">生产通知</text><rect class="cls-7" x="670" y="424.4" width="174.5" height="78.29" rx="35.7" ry="35.7"/><text class="cls-5" transform="translate(696.6 476.9)">四新计划</text><rect class="cls-7" x="959.8" y="424.4" width="174.5" height="78.29" rx="35.7" ry="35.7"/><text class="cls-5" transform="translate(986.4 476.9)">拉号列表</text><rect class="cls-8" x="554.1" y="551.4" width="131.4" height="71.49" rx="35.7" ry="35.7"/><text class="cls-9" transform="translate(584.3 596.4)">大万数</text><rect class="cls-8" x="692" y="551.4" width="131.4" height="71.49" rx="35.7" ry="35.7"/><text class="cls-9" transform="translate(725.1 596.4)">时间段</text><rect class="cls-8" x="829.8" y="551.4" width="131.4" height="71.49" rx="35.7" ry="35.7"/><text class="cls-9" transform="translate(869 596.4)">冠字段</text><text class="cls-10" transform="translate(553.7 688.1)">对应机台生产<tspan x="0" y="23.3">完预设大万数</tspan></text><text class="cls-10" transform="translate(396.4 646.5)">工序变更时通知<tspan x="0" y="23.3">工艺和机检人员</tspan></text><text class="cls-10" transform="translate(122.4 646.5)">转指定工艺</text><text class="cls-10" transform="translate(992.7 646.5)">按号解锁出库</text><text class="cls-10" transform="translate(699.4 688.1)">当前时间大于<tspan x="0" y="23.3">预设结束时间</tspan></text><text class="cls-10" transform="translate(842.5 688.1)">冠字段大万数<tspan x="0" y="23.3">大于预设数量</tspan></text><rect class="cls-6" x="205" y="1159.7" width="181.4" height="99.83" rx="35.7" ry="35.7"/><text class="cls-5" transform="translate(247.2 1199.4)">腾讯通<tspan x="-16.2" y="38.8">消息服务</tspan></text><rect class="cls-6" x="521.7" y="1159.7" width="181.4" height="99.83" rx="35.7" ry="35.7"/><text class="cls-5" transform="translate(563.8 1199.4)">立体库<tspan x="16.2" y="38.8">系统</tspan></text><rect class="cls-6" x="838.3" y="1159.7" width="181.4" height="99.83" rx="35.7" ry="35.7"/><text class="cls-5" transform="translate(864.3 1199.4)">工艺质量<tspan x="0" y="38.8">问题发布</tspan></text><text class="cls-11" transform="translate(525.1 1079.9)">工艺变更<tspan class="cls-12"><tspan x="4.5" y="18">全检/码后/</tspan><tspan x="-48.9" y="36">码后验证/人工拉号</tspan></tspan></text><text class="cls-11" transform="translate(627.6 1079.9)">记录日志<tspan class="cls-12"><tspan x="0" y="18">所有与立体库信息交互</tspan><tspan x="0" y="36">均记录数据收发信息</tspan></tspan></text><text class="cls-10" transform="translate(851.4 1079.9)">实时更新四新任务<tspan x="19.4" y="23.3">质量统计信息</tspan></text><text class="cls-10" transform="translate(218.1 1079.9)">生产工序变更通知<tspan x="0" y="23.3">四新计划完成进度</tspan></text><text class="cls-10" transform="translate(290.2 389)">添加</text><text class="cls-10" transform="translate(515.6 367.1)">添加</text><text class="cls-10" transform="translate(752.7 366.1)">添加</text><text class="cls-10" transform="translate(870.7 386.3)">自动生成</text><path class="cls-13" d="M440.7,233.4c0-9-2.6-16.3-7.6-21.7a33.7,33.7,0,0,0-18.7-10.2c-7.3-1.3-23.5-2.1-48.4-2.3s-41.3-2.5-49-6.8-13.2-9.7-16.6-16.1-5.1-14.2-5.1-27.3"/><path class="cls-13" d="M929,149c0,15.6-2.6,24.9-7.8,32A36.8,36.8,0,0,1,900,195.3c-8.9,2.3-23.6,3.6-44,3.7s-34.9.8-43.4,2.2-15.3,4.6-20.5,9.8-8,12.7-8.5,22.4"/><path class="cls-13" d="M783.6,308.8c.9,14.1,6,24.8,15.4,32.3s21.8,12.2,37.1,14.2,41.6,3,78.6,3.1,63.7,2,79.9,5.4,28.9,10.3,38.4,20.5c5.7,6.4,9.7,15,12,25.9"/><polygon class="cls-14" points="1034.5 408.7 1046.8 424.4 1054.2 405.9 1034.5 408.7"/><path class="cls-13" d="M179.4,410.2c2.2-10.9,6.2-19.5,12-25.9,9.4-10.2,22.2-17.1,38.4-20.5s42.7-5.2,79.8-5.4,63.2-1.2,78.6-3.1,27.7-6.7,37.1-14.2,14.5-18.2,15.4-32.3"/><polygon class="cls-14" points="189.8 408.7 177.5 424.4 170.1 405.9 189.8 408.7"/><line class="cls-13" x1="505.3" y1="149" x2="505.3" y2="231.5"/><path class="cls-13" d="M465.9,684.3c0,107.3,43,112.1,46.9,210.3"/><polygon class="cls-14" points="502.7 891.9 513.1 908.9 522.6 891.4 502.7 891.9"/><line class="cls-13" x1="715.3" y1="149" x2="715.3" y2="231.5"/><path class="cls-13" d="M619.4,551.7a1.8,1.8,0,0,1,.5-.7,35.9,35.9,0,0,1,20.4-13.2c8.6-2.2,22.8-3.3,42.5-3.4s33.6-.8,41.8-2,14.8-4.3,19.8-9.1,7.7-11.7,8.1-20.6"/><path class="cls-13" d="M762.3,502.7c.5,8.9,3.2,15.8,8.2,20.6s11.6,7.8,19.8,9.1,22.1,1.9,41.8,2,33.9,1.2,42.5,3.4A35.9,35.9,0,0,1,895,551l.5.7"/><path class="cls-13" d="M752.5,766.7c-.4-8.9-3.1-15.8-8.1-20.6s-11.6-7.8-19.8-9.1-22.1-1.9-41.8-2-33.9-1.2-42.5-3.4a35.9,35.9,0,0,1-20.4-13.2,1.8,1.8,0,0,1-.5-.7"/><path class="cls-13" d="M895.5,717.7l-.5.7a35.9,35.9,0,0,1-20.4,13.2c-8.6,2.2-22.8,3.3-42.5,3.4s-33.7.8-41.8,2-14.8,4.3-19.8,9.1-7.7,11.7-8.2,20.6"/><line class="cls-13" x1="757.3" y1="502.7" x2="757.3" y2="551.7"/><line class="cls-13" x1="757.3" y1="622" x2="757.3" y2="666"/><line class="cls-13" x1="900.8" y1="622" x2="900.8" y2="666"/><line class="cls-13" x1="612.4" y1="622" x2="612.4" y2="666"/><line class="cls-13" x1="757.3" y1="717.7" x2="757.3" y2="766.7"/><path class="cls-13" d="M442.3,891.5a48.8,48.8,0,0,0-12.6-24.6,60.9,60.9,0,0,0-34.1-18.3q-20.1-3.6-88.7-4.2t-89.7-12.2c-14-7.7-24.2-17.3-30.4-28.9s-9.3-29-9.3-52.6V651.3"/><polygon class="cls-14" points="451.7 887.5 443.7 905.8 431.8 889.7 451.7 887.5"/><path class="cls-13" d="M1048.3,651.3v99.4q0,35.4-9.3,52.6c-6.2,11.6-16.3,21.2-30.4,28.9s-44,11.8-89.7,12.2-75.2,1.8-88.7,4.2a61.2,61.2,0,0,0-34.1,18.3,48.8,48.8,0,0,0-12.6,24.6"/><polygon class="cls-14" points="774.2 887.5 782.1 905.8 794 889.7 774.2 887.5"/><line class="cls-13" x1="1051" y1="502.7" x2="1051" y2="622"/><line class="cls-13" x1="177.5" y1="502.7" x2="177.5" y2="622"/><line class="cls-13" x1="464.3" y1="503.1" x2="464.3" y2="622.4"/><path class="cls-13" d="M505,309.7c0,52.2-33.6,56.9-39.8,100.4"/><polygon class="cls-14" points="455.7 406.4 464.3 424.4 475.6 408 455.7 406.4"/><path class="cls-13" d="M715.3,309.3c0,52.1,33.7,56.9,39.8,100.4"/><polygon class="cls-14" points="744.7 407.6 756 424 764.6 406 744.7 407.6"/><path class="cls-13" d="M756,837c0,29.6-29,34.2-38,56"/><polygon class="cls-14" points="709.3 888.1 715.3 907.1 728.8 892.4 709.3 888.1"/><path class="cls-13" d="M304.5,1055.8q2.4-14.8,13.5-22.5c9.4-6.5,22.2-10.8,38.3-13s42.8-3.3,79.8-3.4,63.2-.8,78.6-2,27.7-4.3,37.1-9,14.5-11.6,15.4-20.5"/><path class="cls-13" d="M657.6,985.4c.8,8.9,5.9,15.7,15.3,20.5s21.8,7.7,37.1,9,41.6,1.9,78.6,2,63.6,1.2,79.8,3.4,28.9,6.5,38.4,13c7.3,5.1,11.8,12.6,13.4,22.5"/><line class="cls-13" x1="304.5" y1="1110.2" x2="304.5" y2="1145.3"/><polygon class="cls-14" points="294.5 1142.4 304.5 1159.7 314.5 1142.4 294.5 1142.4"/><line class="cls-13" x1="920.2" y1="1110.2" x2="920.2" y2="1145.3"/><polygon class="cls-14" points="910.2 1142.4 920.2 1159.7 930.2 1142.4 910.2 1142.4"/><circle class="cls-14" cx="505.3" cy="190.2" r="9.5"/><text class="cls-15" transform="translate(501.4 195.7)">2</text><circle class="cls-14" cx="715.3" cy="190.2" r="9.5"/><text class="cls-15" transform="translate(711.4 196.7)">3</text><circle class="cls-14" cx="909.5" cy="190.2" r="9.5"/><text class="cls-15" transform="translate(904.7 195.7)">4</text><circle class="cls-14" cx="313.6" cy="190.2" r="9.5"/><text class="cls-15" transform="translate(309.7 196.7)">1</text><circle class="cls-14" cx="309.6" cy="358.9" r="9.5"/><text class="cls-15" transform="translate(305.7 365.4)">1</text><circle class="cls-14" cx="494.6" cy="358.9" r="9.5"/><text class="cls-15" transform="translate(490.8 364.4)">2</text><circle class="cls-14" cx="734.3" cy="358.9" r="9.5"/><text class="cls-15" transform="translate(730.5 365.4)">3</text><circle class="cls-14" cx="909.5" cy="355.9" r="9.5"/><text class="cls-15" transform="translate(904.7 361.4)">4</text><rect class="cls-14" x="611.4" y="985.4" width="2" height="159.93"/><polygon class="cls-14" points="603.4 1142.4 613.4 1159.7 613.4 1142.4 603.4 1142.4"/><line class="cls-13" x1="618.7" y1="989.3" x2="618.7" y2="1159.7"/><polygon class="cls-14" points="627.6 1002.7 617.7 985.4 617.7 1002.7 627.6 1002.7"/><rect class="cls-14" x="47.5" y="549.7" width="58.5" height="148.54" rx="29.2" ry="29.2"/><text class="cls-16" transform="translate(76.7 575.4)">任务池</text></g></svg>