<svg xmlns="http://www.w3.org/2000/svg" viewBox="0 0 1025.4 717.7"><defs><style>.cls-1{fill:#34495d;}.cls-2,.cls-8{fill:none;stroke-width:2px;}.cls-2{stroke:#da5961;stroke-miterlimit:10;}.cls-3{fill:#3ab882;}.cls-4{fill:#da5961;}.cls-5{font-size:20px;}.cls-11,.cls-12,.cls-5,.cls-7{fill:#8699a3;}.cls-10,.cls-11,.cls-12,.cls-13,.cls-5,.cls-9{font-family:STHeitiSC-Light, Heiti SC;}.cls-6{fill:#fcb737;}.cls-8{stroke:#8699a3;}.cls-12,.cls-13,.cls-9{writing-mode:tb;text-orientation:upright;glyph-orientation-vertical:0deg;}.cls-9{font-size:32.35px;}.cls-10,.cls-13,.cls-9{fill:#fff;}.cls-10,.cls-11,.cls-12,.cls-13{font-size:26px;}</style></defs><title>c</title><g id="图层_1" data-name="图层 1"><rect class="cls-1" x="339" y="256.4" width="559.1" height="111.65" rx="35.7" ry="35.7" transform="translate(930.7 -306.3) rotate(90)"/><rect class="cls-2" x="873.6" y="184.4" width="90.3" height="247.96" rx="31.7" ry="31.7"/><rect class="cls-3" x="171.7" y="80.8" width="174.5" height="78.29" rx="35.7" ry="35.7" transform="translate(378.9 -139) rotate(90)"/><rect class="cls-4" x="171.7" y="273.1" width="174.5" height="78.29" rx="35.7" ry="35.7" transform="translate(571.2 53.3) rotate(90)"/><rect class="cls-2" x="171.7" y="467.7" width="174.5" height="78.29" rx="35.7" ry="35.7" transform="translate(765.8 247.9) rotate(90)"/><text class="cls-5" transform="translate(386.7 102.2)">发送任务</text><text class="cls-5" transform="translate(754.5 278.7)">存储</text><text class="cls-5" transform="translate(754.5 357.7)">读取</text><text class="cls-5" transform="translate(386.7 282.4)">接受任务</text><text class="cls-5" transform="translate(366.7 351.7)">更新任务进度</text><rect class="cls-6" x="846.8" y="560.9" width="138.8" height="95.44" rx="35.7" ry="35.7" transform="translate(1524.8 -307.5) rotate(90)"/><polygon class="cls-7" points="857.4 288.5 857.4 296.5 674.3 296.5 674.3 298.5 857.4 298.5 860.3 298.5 874.6 298.5 857.4 288.5"/><line class="cls-8" x1="679.3" y1="319.4" x2="873.6" y2="319.4"/><polygon class="cls-7" points="692.6 328.4 675.4 318.4 692.6 318.4 692.6 328.4"/><polygon class="cls-7" points="545.4 290.3 545.4 298.3 299.1 298.3 299.1 300.3 545.4 300.3 548.3 300.3 562.7 300.3 545.4 290.3"/><line class="cls-8" x1="303.4" y1="321.2" x2="562.7" y2="321.2"/><polygon class="cls-7" points="316.4 330 299.1 320 316.4 320 316.4 330"/><polygon class="cls-7" points="201.1 290.3 201.1 298.3 143.8 298.3 143.8 300.3 201.1 300.3 204 300.3 218.4 300.3 201.1 290.3"/><line class="cls-8" x1="148" y1="321.2" x2="218.4" y2="321.2"/><polygon class="cls-7" points="161 330 143.8 320 161 320 161 330"/><path class="cls-7" d="M105.7,394.7h-12c-20.9,0-38-14.4-38-35.3V253.7c0-14.3,17.1-28.7,38-28.7h12c21,0,38.1,14.4,38.1,32V362.7C143.8,380.3,126.7,394.7,105.7,394.7Z"/><path class="cls-6" d="M105.7,584.3h-12c-20.9,0-38-13.2-38-32.3V455.6c0-13.1,17.1-26.2,38-26.2h12c21,0,38.1,13.1,38.1,29.2V555C143.8,571.1,126.7,584.3,105.7,584.3Z"/><rect class="cls-7" x="396.4" y="422.9" width="80.2" height="262.19" rx="29.2" ry="29.2"/><text class="cls-9" transform="translate(618.5 195.5)">API<tspan x="0" y="97"> </tspan><tspan x="0" y="105.1">管理系统</tspan></text><text class="cls-10" transform="translate(232.1 99.3)">前台<tspan x="0" y="31.2">流程</tspan><tspan x="0" y="62.4">系统</tspan></text><text class="cls-10" transform="translate(231.1 292.1)">后台<tspan x="0" y="31.2">调度</tspan><tspan x="0" y="62.4">系统</tspan></text><text class="cls-10" transform="translate(73.9 500.5)">库管<tspan x="0" y="31.2">系统</tspan></text><text class="cls-10" transform="translate(876.9 609.4)">腾讯通<tspan x="13" y="31.2">服务</tspan></text><text class="cls-11" transform="translate(238.7 499.3)">API<tspan x="-5.7" y="31.2">网关</tspan></text><text class="cls-10" transform="translate(72.9 289.6)">任务<tspan x="0" y="31.2">处理</tspan><tspan x="0" y="62.4">模块</tspan></text><text class="cls-12" transform="translate(920 246.5)">业务数据库</text><text class="cls-5" transform="translate(726 601.3)">发送消息</text><text class="cls-13" transform="translate(436.5 504.9)">消息处理</text><line class="cls-8" x1="476.6" y1="615" x2="854.2" y2="615"/><polygon class="cls-7" points="851.3 625 868.6 615 851.3 605 851.3 625"/><line class="cls-8" x1="476.6" y1="503.2" x2="548.3" y2="503.2"/><polygon class="cls-7" points="545.4 513.1 562.7 503.2 545.4 493.2 545.4 513.1"/><line class="cls-8" x1="298.1" y1="119.9" x2="548.3" y2="119.9"/><polygon class="cls-7" points="545.4 129.9 562.7 119.9 545.4 110 545.4 129.9"/><line class="cls-8" x1="298.1" y1="503.2" x2="382.1" y2="503.2"/><polygon class="cls-7" points="379.2 513.1 396.4 503.2 379.2 493.2 379.2 513.1"/><line class="cls-8" x1="143.8" y1="503.2" x2="204.7" y2="503.2"/><polygon class="cls-7" points="201.8 513.1 219.1 503.2 201.8 493.2 201.8 513.1"/></g></svg>